#!OML:ASF E:\acrobat2\Project_11_07_03\Capture day 1\Session 1\Acrobat.ASF
:FULLY-SPECIFIED
:DEGREES
533
root 10.827 6.01014 11.6211 -87.8449 3.35821 179.829
lowerback -5.80758 -2.88075 4.97685
upperback -0.289113 -4.20739 1.20382
thorax 2.68734 -2.04229 -1.86888
lowerneck 5.82109 -15.5517 -9.44395
upperneck -29.9588 -16.6667 29.3205
head -6.08024 -9.11138 12.212
rclavicle 4.13472e-014 -8.19987e-015
rhumerus 29.819 -31.6807 -30.8526
rradius 121.223
rwrist -21.7029
rhand -20.4139 -43.3005
rfingers 7.12502
rthumb 5.94021 -73.1972
lclavicle 4.13472e-014 -8.19987e-015
lhumerus 16.0909 46.4029 3.14656
lradius 109.455
lwrist 32.3873
lhand -4.05526 -25.6912
lfingers 7.12502
lthumb 21.7009 3.11251
rfemur 0.407138 16.3992 -8.65929
rtibia 9.54166e-015
rfoot 32.9465 -23.4982
rtoes 24.9724
lfemur -11.3623 -21.0899 3.68138
ltibia 18.8451
lfoot 35.8468 12.3116
ltoes 22.8328
534
root 10.8317 6.00996 11.6225 -87.8619 3.31116 179.804
lowerback -5.79294 -2.89871 4.98318
upperback -0.268967 -4.23381 1.24929
thorax 2.70133 -2.05528 -1.82734
lowerneck 5.83655 -15.4727 -9.57556
upperneck -29.9145 -16.5776 29.3171
head -6.07223 -9.05853 12.2348
rclavicle 4.13472e-014 -7.05686e-015
rhumerus 29.8843 -31.7112 -30.858
rradius 121.25
rwrist -21.7532
rhand -20.4059 -43.2921
rfingers 7.12502
rthumb 5.94793 -73.1886
lclavicle 4.13472e-014 -7.05686e-015
lhumerus 15.997 46.4643 3.09867
lradius 109.457
lwrist 32.4085
lhand -4.04288 -25.7645
lfingers 7.12502
lthumb 21.7128 3.03778
rfemur 0.462138 16.3866 -8.63147
rtibia 4.77083e-015
rfoot 32.68 -23.0733
rtoes 24.4696
lfemur -11.296 -21.0955 3.71967
ltibia 18.7863
lfoot 35.6582 12.3728
ltoes 22.0424
535
root 10.8359 6.01065 11.6255 -87.8867 3.2647 179.773
lowerback -5.75918 -2.91927 4.98887
upperback -0.249924 -4.26229 1.28985
thorax 2.70303 -2.06965 -1.78944
lowerneck 5.87891 -15.3732 -9.70701
upperneck -29.8863 -16.463 29.2717
head -6.08549 -8.99004 12.2512
rclavicle -3.18055e-015 1.35671e-014
rhumerus 29.9362 -31.7473 -30.8733
rradius 121.269
rwrist -21.8011
rhand -20.3839 -43.29
rfingers 7.12502
rthumb 5.96922 -73.1859
lclavicle -3.18055e-015 1.35671e-014
lhumerus 15.9242 46.5197 3.04809
lradius 109.447
lwrist 32.4283
lhand -4.05049 -25.8299
lfingers 7.12502
lthumb 21.7055 2.97325
rfemur 0.528881 16.3713 -8.60125
rtibia -1.59028e-015
rfoot 32.3796 -22.8257
rtoes 24.4013
lfemur -11.2557 -21.0783 3.76058
ltibia 18.7582
lfoot 35.5603 12.4453
ltoes 21.199
536
root 10.8396 6.01223 11.6303 -87.9159 3.21923 179.737
lowerback -5.70923 -2.93857 4.99603
upperback -0.231497 -4.2879 1.32286
thorax 2.69456 -2.08283 -1.75887
lowerneck 5.94704 -15.2622 -9.83223
upperneck -29.8878 -16.3275 29.2182
head -6.11921 -8.91156 12.2729
rclavicle 0 2.82026e-014
rhumerus 29.9712 -31.7976 -30.8914
rradius 121.278
rwrist -21.8488
rhand -20.3413 -43.311
rfingers 7.12502
rthumb 6.01028 -73.2058
lclavicle 0 2.82026e-014
lhumerus 15.8882 46.5747 3.00536
lradius 109.418
lwrist 32.4482
lhand -4.06107 -25.8815
lfingers 7.12502
lthumb 21.6953 2.92288
rfemur 0.603637 16.3549 -8.56871
rtibia -7.95139e-015
rfoot 32.0495 -22.7744
rtoes 24.8267
lfemur -11.2488 -21.0442 3.80686
ltibia 18.7679
lfoot 35.555 12.507
ltoes 20.6997
537
root 10.8428 6.01443 11.6358 -87.945 3.17891 179.704
lowerback -5.64946 -2.95419 5.00134
upperback -0.212518 -4.3075 1.34594
thorax 2.68092 -2.09313 -1.73645
lowerneck 6.00036 -15.1581 -9.93492
upperneck -29.8869 -16.1885 29.2163
head -6.14619 -8.83795 12.3073
rclavicle 1.11319e-014 7.10655e-015
rhumerus 29.9916 -31.8623 -30.914
rradius 121.28
rwrist -21.8867
rhand -20.2842 -43.3472
rfingers 7.12502
rthumb 6.06543 -73.2404
lclavicle 1.11319e-014 7.10655e-015
lhumerus 15.8962 46.6314 2.97671
lradius 109.37
lwrist 32.4616
lhand -4.06733 -25.9319
lfingers 7.12502
lthumb 21.6893 2.87313
rfemur 0.670176 16.3403 -8.53804
rtibia 1.82882e-014
rfoot 31.7877 -22.8005
rtoes 25.4034
lfemur -11.2696 -20.9968 3.85273
ltibia 18.8074
lfoot 35.6396 12.5382
ltoes 20.7018
538
root 10.8458 6.01722 11.6417 -87.9732 3.15391 179.674
lowerback -5.58219 -2.96611 4.99314
upperback -0.190679 -4.32059 1.35748
thorax 2.66655 -2.10028 -1.7176
lowerneck 6.01369 -15.0743 -9.99335
upperneck -29.8729 -16.0653 29.2479
head -6.15927 -8.77727 12.339
rclavicle -4.92986e-014 1.22998e-014
rhumerus 30.0128 -31.9415 -30.9427
rradius 121.269
rwrist -21.9059
rhand -20.218 -43.3864
rfingers 7.12502
rthumb 6.12932 -73.2777
lclavicle -4.92986e-014 1.22998e-014
lhumerus 15.9521 46.6938 2.9668
lradius 109.304
lwrist 32.461
lhand -4.0578 -25.9945
lfingers 7.12502
lthumb 21.6985 2.8095
rfemur 0.721671 16.3277 -8.52286
rtibia -7.15625e-015
rfoot 31.5967 -22.886
rtoes 26.0576
lfemur -11.3042 -20.9304 3.88479
ltibia 18.8591
lfoot 35.774 12.5555
ltoes 21.1959
539
root 10.8485 6.02052 11.6478 -88.0015 3.1527 179.648
lowerback -5.50767 -2.97558 4.963
upperback -0.166777 -4.32833 1.35774
thorax 2.65131 -2.10499 -1.69748
lowerneck 5.98816 -15.0113 -10.0081
upperneck -29.8501 -15.965 29.2722
head -6.16376 -8.72827 12.3537
rclavicle 4.92986e-014 -2.78795e-014
rhumerus 30.0458 -32.0309 -30.9731
rradius 121.243
rwrist -21.9024
rhand -20.1435 -43.4242
rfingers 7.12502
rthumb 6.20124 -73.3135
lclavicle 4.92986e-014 -2.78795e-014
lhumerus 16.0462 46.7604 2.97272
lradius 109.221
lwrist 32.4537
lhand -4.02631 -26.0848
lfingers 7.12502
lthumb 21.7287 2.71573
rfemur 0.757169 16.3171 -8.53465
rtibia -1.03368e-014
rfoot 31.433 -23.0638
rtoes 26.836
lfemur -11.3385 -20.8531 3.89218
ltibia 18.9074
lfoot 35.8992 12.5703
ltoes 21.9631
540
root 10.8508 6.02412 11.6536 -88.0325 3.17751 179.629
lowerback -5.4251 -2.98335 4.90802
upperback -0.141977 -4.33155 1.34927
thorax 2.63388 -2.10777 -1.67184
lowerneck 5.93275 -14.9635 -10.0108
upperneck -29.815 -15.89 29.2702
head -6.15839 -8.68771 12.3498
rclavicle 3.18055e-015 2.53947e-014
rhumerus 30.0978 -32.1326 -30.9969
rradius 121.193
rwrist -21.8914
rhand -20.0699 -43.4534
rfingers 7.12502
rthumb 6.27234 -73.3405
lclavicle 3.18055e-015 2.53947e-014
lhumerus 16.1612 46.8326 2.97761
lradius 109.124
lwrist 32.4577
lhand -3.98233 -26.202
lfingers 7.12502
lthumb 21.7709 2.59362
rfemur 0.774978 16.3128 -8.57211
rtibia 1.19271e-015
rfoot 31.3391 -23.2566
rtoes 27.5046
lfemur -11.3638 -20.7779 3.86987
ltibia 18.9498
lfoot 36.0044 12.5631
ltoes 22.497
541
root 10.8525 6.02794 11.6596 -88.073 3.22866 179.614
lowerback -5.32902 -2.99154 4.82965
upperback -0.117599 -4.3329 1.33361
thorax 2.60969 -2.11005 -1.63968
lowerneck 5.85809 -14.9129 -10.0395
upperneck -29.7538 -15.8265 29.2192
head -6.14215 -8.6444 12.326
rclavicle 3.49861e-014 -7.33018e-015
rhumerus 30.1864 -32.249 -31.0069
rradius 121.101
rwrist -21.8984
rhand -20.001 -43.4671
rfingers 7.12502
rthumb 6.33882 -73.3522
lclavicle 3.49861e-014 -7.33018e-015
lhumerus 16.2838 46.9113 2.95947
lradius 109.006
lwrist 32.4898
lhand -3.9373 -26.3134
lfingers 7.12502
lthumb 21.8142 2.47717
rfemur 0.788722 16.3168 -8.62996
rtibia -1.47101e-014
rfoot 31.307 -23.4594
rtoes 28.0678
lfemur -11.3772 -20.713 3.81465
ltibia 18.9942
lfoot 36.0909 12.5278
ltoes 23.048
542
root 10.8533 6.03176 11.666 -88.123 3.29842 179.603
lowerback -5.22134 -3.00086 4.73858
upperback -0.0964217 -4.33413 1.31328
thorax 2.57625 -2.11266 -1.60443
lowerneck 5.74978 -14.8728 -10.1056
upperneck -29.6387 -15.787 29.2041
head -6.08854 -8.61291 12.3071
rclavicle 1.43125e-014 7.65321e-015
rhumerus 30.3139 -32.3708 -31.0002
rradius 120.963
rwrist -21.9307
rhand -19.942 -43.4638
rfingers 7.12502
rthumb 6.39577 -73.3473
lclavicle 1.43125e-014 7.65321e-015
lhumerus 16.4054 46.9899 2.91101
lradius 108.871
lwrist 32.5529
lhand -3.89277 -26.3965
lfingers 7.12502
lthumb 21.8569 2.38905
rfemur 0.803846 16.3277 -8.69651
rtibia 1.90833e-014
rfoot 31.3568 -23.6534
rtoes 28.4778
lfemur -11.3849 -20.6667 3.73442
ltibia 19.0504
lfoot 36.1638 12.4457
ltoes 23.2199
